<svg xmlns="http://www.w3.org/2000/svg" width="22" height="24.021" viewBox="0 0 22 24.021">
  <g id="viber_3_" data-name="viber (3)" transform="translate(-1.38 0.013)">
    <path id="Path_4" data-name="Path 4" d="M23.155,13.893c.716-6.027-.344-9.832-2.256-11.553h0C17.814-.6,7.392-1.035,3.7,2.471,2.042,4.186,1.458,6.7,1.394,9.819s-.14,8.956,5.3,10.54H6.7l-.005,2.419s-.037.98.589,1.177c.716.232,1.04-.223,3.267-2.883a20.378,20.378,0,0,0,6.909-.525c.752-.252,5.007-.815,5.695-6.654ZM10.918,19.37s-2.357,2.939-3.09,3.7c-.24.248-.5.225-.5-.267,0-.323.018-4.016.018-4.016-4.613-1.322-4.341-6.294-4.291-8.9s.526-4.733,1.93-6.168c3.239-3.037,12.376-2.358,14.7-.17,2.846,2.523,1.833,9.651,1.839,9.894-.585,4.874-4.033,5.183-4.667,5.394a18.8,18.8,0,0,1-5.944.526Z" fill="#8e24aa"/>
    <path id="Path_5" data-name="Path 5" d="M12.222,4.3a.3.3,0,0,0,0,.605c2.987.023,5.447,2.105,5.474,5.924a.293.293,0,1,0,.585-.005h0c-.032-4.115-2.718-6.5-6.058-6.524Z" fill="#8e24aa"/>
    <path id="Path_6" data-name="Path 6" d="M16.151,10.193a.293.293,0,1,0,.585.014,4.05,4.05,0,0,0-3.979-4.335.3.3,0,0,0-.041.605,3.452,3.452,0,0,1,3.435,3.716Z" fill="#8e24aa"/>
    <path id="Path_7" data-name="Path 7" d="M15.521,12.774a.924.924,0,0,0-1.2.173l-.435.563a.778.778,0,0,1-.634.248,5.8,5.8,0,0,1-3.82-3.951.841.841,0,0,1,.239-.656l.544-.45a1,1,0,0,0,.167-1.247A13,13,0,0,0,8.887,5.3a.8.8,0,0,0-1.082-.183H7.8c-.865.506-1.812,1.453-1.509,2.428.517,1.028,1.467,4.3,4.495,6.781a17.285,17.285,0,0,0,4.631,2.648l.009.014c.942.314,1.858-.67,2.347-1.561v-.007a.857.857,0,0,0-.172-1.106,11.789,11.789,0,0,0-2.076-1.542Z" fill="#8e24aa"/>
    <path id="Path_8" data-name="Path 8" d="M13.169,8.1c.961.056,1.427.558,1.477,1.589a.293.293,0,1,0,.585-.028A2.007,2.007,0,0,0,13.2,7.5a.3.3,0,0,0-.032.605Z" fill="#8e24aa"/>
  </g>
</svg>
