<svg xmlns="http://www.w3.org/2000/svg" width="24" height="23.988" viewBox="0 0 24 23.988">
  <g id="whatsapp_2_" data-name="whatsapp (2)" transform="translate(0 -0.134)">
    <path id="Path_2" data-name="Path 2" d="M11.993.134A11.993,11.993,0,0,0,1.9,18.6L.033,23.44a.5.5,0,0,0,.467.68.486.486,0,0,0,.168-.029l5-1.784A11.993,11.993,0,1,0,11.993.134Z" transform="translate(0 0)" fill="#4caf50"/>
    <path id="Path_3" data-name="Path 3" d="M139.726,136.181s-1.224-.6-1.991-1c-.867-.447-1.887.39-2.367.866a5.449,5.449,0,0,1-3.279-3.279c.476-.481,1.31-1.5.866-2.367-.395-.768-1-1.991-1-1.992a.5.5,0,0,0-.446-.275h-1a3.011,3.011,0,0,0-2.5,3c0,1.569,1.878,4.583,3.144,5.851s4.28,3.144,5.851,3.144a3.011,3.011,0,0,0,3-2.5v-1A.5.5,0,0,0,139.726,136.181Z" transform="translate(-122.015 -122.005)" fill="#fafafa"/>
  </g>
</svg>
